<svg xmlns="http://www.w3.org/2000/svg" viewBox="0 0 400 140">
  <rect width="400" height="140" fill="#1c1e1f"/>
  <g stroke="#2b2e2f" stroke-width="0.5">
    <line x1="0" y1="28" x2="400" y2="28"/>
    <line x1="0" y1="56" x2="400" y2="56"/>
    <line x1="0" y1="84" x2="400" y2="84"/>
    <line x1="0" y1="112" x2="400" y2="112"/>
    <line x1="80" y1="0" x2="80" y2="140"/>
    <line x1="160" y1="0" x2="160" y2="140"/>
    <line x1="240" y1="0" x2="240" y2="140"/>
    <line x1="320" y1="0" x2="320" y2="140"/>
  </g>
  <path d="M 128 15 Q 100 70 128 125" fill="none" stroke="#c0995e" stroke-width="3"/>
  <path d="M 25 32 Q 115 32 148 60 Q 167 70 205 64 Q 275 55 385 44" fill="none" stroke="#6a8ea8" stroke-width="1.8"/>
  <path d="M 25 70 Q 115 70 140 70 M 180 70 Q 235 70 385 70" fill="none" stroke="#6a8ea8" stroke-width="1.8"/>
  <path d="M 25 108 Q 115 108 148 80 Q 167 70 205 76 Q 275 85 385 96" fill="none" stroke="#6a8ea8" stroke-width="1.8"/>
  <circle cx="160" cy="70" r="13" fill="#c0995e"/>
  <circle cx="215" cy="55" r="7" fill="none" stroke="#6a8ea8" stroke-width="1.6"/>
  <circle cx="236" cy="86" r="7" fill="none" stroke="#6a8ea8" stroke-width="1.6"/>
  <circle cx="264" cy="55" r="6" fill="none" stroke="#6a8ea8" stroke-width="1.3" opacity="0.75"/>
  <circle cx="285" cy="86" r="6" fill="none" stroke="#6a8ea8" stroke-width="1.3" opacity="0.75"/>
</svg>
