<svg xmlns="http://www.w3.org/2000/svg" viewBox="0 0 400 140">
  <rect width="400" height="140" fill="#1c1e1f"/>
  <g stroke="#2b2e2f" stroke-width="0.5">
    <line x1="0" y1="28" x2="400" y2="28"/>
    <line x1="0" y1="56" x2="400" y2="56"/>
    <line x1="0" y1="84" x2="400" y2="84"/>
    <line x1="0" y1="112" x2="400" y2="112"/>
    <line x1="80" y1="0" x2="80" y2="140"/>
    <line x1="160" y1="0" x2="160" y2="140"/>
    <line x1="240" y1="0" x2="240" y2="140"/>
    <line x1="320" y1="0" x2="320" y2="140"/>
  </g>
  <path d="M 24 22 L 172 84 L 24 108 M 172 84 L 382.0 108.9" fill="none" stroke="#6a8ea8" stroke-width="4.0"/>
  <g fill="none" stroke="#c0995e" stroke-width="1.8" opacity="0.55" stroke-linecap="round">
    <path d="M 24.0 21.9 C 30.2 24.4, 49.3 32.5, 60.8 37.2 C 72.3 42.0, 83.0 46.5, 92.8 50.6 C 102.6 54.6, 111.6 58.4, 119.6 61.6 C 127.6 64.9, 134.8 67.9, 140.8 70.2 C 146.8 72.5, 152.1 74.4, 155.8 75.6 C 159.4 76.9, 159.7 76.9, 162.5 77.6 C 165.3 78.3, 167.1 78.9, 172.7 79.9 C 178.3 80.8, 186.6 82.1, 196.1 83.3 C 205.6 84.6, 217.0 86.0, 229.7 87.6 C 242.5 89.1, 256.8 90.9, 272.4 92.7 C 288.0 94.6, 305.1 96.6, 323.4 98.8 C 341.6 101.0, 372.2 104.6, 382.0 105.8"/>
    <path d="M 24.0 108.1 C 30.1 107.1, 49.2 104.1, 60.6 102.2 C 72.0 100.4, 82.6 98.7, 92.4 97.2 C 102.1 95.6, 111.1 94.2, 119.0 93.0 C 127.0 91.8, 134.1 90.7, 140.1 89.9 C 146.0 89.1, 151.2 88.6, 154.7 88.3 C 158.3 88.0, 158.4 88.0, 161.3 88.0 C 164.1 87.9, 166.1 87.8, 171.8 88.2 C 177.4 88.6, 185.8 89.3, 195.4 90.3 C 204.9 91.3, 216.4 92.6, 229.2 94.1 C 242.0 95.5, 256.4 97.2, 272.0 99.0 C 287.7 100.9, 304.8 102.9, 323.2 105.0 C 341.5 107.2, 372.2 110.8, 382.0 112.0"/>
  </g>
  <g fill="none" stroke="#c0995e" stroke-width="2.1" opacity="1.0" stroke-linecap="round">
    <path d="M 24.2 21.3 C 29.7 23.6, 47.1 30.7, 57.4 35.0 C 67.8 39.2, 77.5 43.1, 86.4 46.7 C 95.3 50.2, 103.4 53.4, 110.7 56.1 C 118.0 58.9, 124.6 61.2, 130.1 63.1 C 135.6 65.0, 140.5 66.4, 143.7 67.4 C 147.0 68.4, 147.1 68.3, 149.9 69.1 C 152.7 69.8, 154.8 70.5, 160.6 71.7 C 166.5 72.9, 175.2 74.6, 185.2 76.3 C 195.2 77.9, 207.3 79.6, 220.7 81.4 C 234.2 83.3, 249.4 85.2, 265.9 87.3 C 282.5 89.3, 300.6 91.5, 319.9 93.9 C 339.3 96.3, 371.7 100.2, 382.1 101.4"/>
    <path d="M 24.0 108.8 C 29.5 107.9, 46.6 105.3, 56.8 103.7 C 67.0 102.2, 76.5 100.8, 85.2 99.6 C 94.0 98.3, 102.0 97.2, 109.1 96.4 C 116.2 95.5, 122.6 94.9, 128.0 94.4 C 133.3 93.9, 138.0 93.7, 141.1 93.5 C 144.3 93.4, 144.2 93.4, 147.0 93.4 C 149.8 93.3, 152.1 93.1, 158.2 93.3 C 164.2 93.6, 173.1 93.9, 183.3 94.6 C 193.4 95.4, 205.7 96.6, 219.3 97.9 C 232.9 99.3, 248.2 101.0, 264.9 102.9 C 281.6 104.7, 299.8 106.8, 319.4 109.1 C 338.9 111.3, 371.6 115.1, 382.0 116.4"/>
  </g>
</svg>
