<svg xmlns="http://www.w3.org/2000/svg" viewBox="0 0 400 140">
  <rect width="400" height="140" fill="#1c1e1f"/>
  <line x1="58" y1="35" x2="370" y2="35" stroke="#6a8ea8" stroke-width="1.8"/>
  <line x1="58" y1="70" x2="370" y2="70" stroke="#6a8ea8" stroke-width="1.8"/>
  <line x1="58" y1="105" x2="370" y2="105" stroke="#6a8ea8" stroke-width="1.8"/>
  <text x="30" y="41" font-family="sans-serif" font-size="16" fill="#bfb9b0">|0&#10217;</text>
  <text x="30" y="76" font-family="sans-serif" font-size="16" fill="#bfb9b0">|0&#10217;</text>
  <text x="30" y="111" font-family="sans-serif" font-size="16" fill="#bfb9b0">|&#968;&#10217;</text>
  <rect x="82" y="18" width="38" height="34" rx="4" fill="#c0995e"/>
  <text x="101" y="43" font-family="sans-serif" font-size="22" font-weight="700" fill="#1c1e1f" text-anchor="middle">H</text>
  <circle cx="150" cy="35" r="5" fill="#c0995e"/>
  <line x1="150" y1="35" x2="150" y2="70" stroke="#c0995e" stroke-width="2"/>
  <circle cx="150" cy="70" r="10" fill="none" stroke="#c0995e" stroke-width="2"/>
  <line x1="140" y1="70" x2="160" y2="70" stroke="#c0995e" stroke-width="2"/>
  <line x1="150" y1="60" x2="150" y2="80" stroke="#c0995e" stroke-width="2"/>
  <rect x="188" y="88" width="50" height="34" rx="4" fill="#6a8ea8"/>
  <text x="213" y="113" font-family="sans-serif" font-size="20" font-weight="700" fill="#1c1e1f" text-anchor="middle">Rz</text>
  <circle cx="268" cy="70" r="5" fill="#c0995e"/>
  <line x1="268" y1="70" x2="268" y2="105" stroke="#c0995e" stroke-width="2"/>
  <circle cx="268" cy="105" r="10" fill="none" stroke="#c0995e" stroke-width="2"/>
  <line x1="258" y1="105" x2="278" y2="105" stroke="#c0995e" stroke-width="2"/>
  <line x1="268" y1="95" x2="268" y2="115" stroke="#c0995e" stroke-width="2"/>
  <g>
    <rect x="315" y="18" width="38" height="34" rx="4" fill="none" stroke="#c0995e" stroke-width="2"/>
    <path d="M 322 44 A 12 12 0 0 1 346 44" fill="none" stroke="#c0995e" stroke-width="1.8"/>
    <line x1="334" y1="44" x2="348" y2="25" stroke="#c0995e" stroke-width="1.8"/>
    <rect x="315" y="53" width="38" height="34" rx="4" fill="none" stroke="#c0995e" stroke-width="2"/>
    <path d="M 322 79 A 12 12 0 0 1 346 79" fill="none" stroke="#c0995e" stroke-width="1.8"/>
    <line x1="334" y1="79" x2="348" y2="60" stroke="#c0995e" stroke-width="1.8"/>
    <rect x="315" y="88" width="38" height="34" rx="4" fill="none" stroke="#c0995e" stroke-width="2"/>
    <path d="M 322 114 A 12 12 0 0 1 346 114" fill="none" stroke="#c0995e" stroke-width="1.8"/>
    <line x1="334" y1="114" x2="348" y2="95" stroke="#c0995e" stroke-width="1.8"/>
  </g>
</svg>
