<svg xmlns="http://www.w3.org/2000/svg" viewBox="0 0 278.95 269.36"><defs><style>.cls-1{fill:#c0995e;}.cls-2{fill:#fff;}.cls-3{fill:none;stroke:#000;stroke-linecap:round;stroke-miterlimit:10;stroke-width:4px;}</style></defs><title>pi</title><g id="Layer_1" data-name="Layer 1"><path class="cls-1" d="M73.77,172.92c10-24.52,15.07-36.76,20.52-52.6,7.73-22.47,6.9-24.21,11.45-34.85.58-1.37,2-6,4.83-15.2,2.28-7.4,3.39-11.38,1.44-13.33-.76-.77-2.61-.87-6.27-1-2.93-.14-4.62,0-11.11.23-.73,0-2.31.07-5.48.2-1.79.08-4.23.17-7.69.27-11.48.34-17.23.51-22.66,2.14C44.75,63,35.12,73,26.6,81.91c-3.62,3.78-5,5.83-9.84,12.16-5.06,6.64-3.87,5.8-8,10.43-1,1.13-5.16,3.47-7.27,2.13C-1.17,105,.17,97.72,2.1,93A29.8,29.8,0,0,1,6.45,85.9c5.88-7.84,6.22-9.75,10.44-15.61,7.94-11,17.11-23.88,33.36-32.93A80.5,80.5,0,0,1,78,28a83,83,0,0,1,30.37,1.71c12.12,2.57,47.28,1,117.6-2.14,15.26-.68,23.63-1.2,29.93-6a17.42,17.42,0,0,1,8.55-3.84c1.56-.2,7.57-.7,11.55,3.42s3.25,11.63,1.28,16.25C271,52.26,245.45,54.5,241,54.89a147,147,0,0,1-16.59.59c-4-.11-7.92,0-11.88-.08-5.72-.13-9.55-.37-11.25,2A15.25,15.25,0,0,0,199.9,61,42.51,42.51,0,0,0,198.64,66c-.62,3.16-.78,5-1.12,7.5-.54,4-1.09,6.38-1.45,8.32-.95,5.07-3.26,21.37-4.7,36.78a374.1,374.1,0,0,0-.86,58.16,386.74,386.74,0,0,0,6.71,47.65c1.94,9,2.9,13.46,4,16.16,2,4.92,4.5,9.19,5.12,16.16.32,3.53.48,5.63-.85,7.27-4.21,5.16-18.13-.57-18.82-.86a38.64,38.64,0,0,1-16.25-13.26c-5-7.27-6.17-14.45-5.13-52.6.56-20.49.87-30.95,2.14-41.48a356.72,356.72,0,0,1,6.84-37.63c3.19-14.33,7.58-34,10.27-43.62,1.1-3.93,1.34-8.08,2.56-12,.81-2.58,1.57-4.42.67-5.79-1.33-2-5.27-1.52-7.73-1.25,0,0-10,1.12-21.86,1.48-7.22.23-17.29-.52-19.67-.7-4.52-.33-9.39-.82-12,2.13-.26.3-.75.91-2.2,5.07a73.66,73.66,0,0,0-2.5,8.07c-4.7,19.64-10.84,38.92-15.42,58.59-23.48,100.71-19.83,79.89-20.56,84,.45-2.54-3.35,9.69-11,34.27-.91,2.94-3,9.62-8.91,15.08-2.3,2.12-6.57,6.05-12.68,5.83a15.19,15.19,0,0,1-9.6-4.12,16.15,16.15,0,0,1-4.8-11c-.35-6.77,3.54-12,5.49-14.74,7.07-10.09,10.15-22.45,15.42-33.59C63.13,198.93,66.68,190.26,73.77,172.92Z"/></g><g id="Layer_2" data-name="Layer 2"><path class="cls-2" d="M150.12,19.76c-1.22-.83-3.66,2.8-7,2.14-2.71-.53-5.24-3.8-5.12-7.34a7.29,7.29,0,0,1,.28-1.68,3,3,0,1,0,2.82-4l-.21,0a5.7,5.7,0,0,1,2.15-1.12c1.8-.44,3.08.41,3.37-.08.48-.83-2.67-4.09-6.57-6A16.48,16.48,0,0,0,129.52.53a19,19,0,0,0-10.65,5.84,17.42,17.42,0,0,0-4.53,8.17,17.33,17.33,0,0,0,.3,8.61,18.4,18.4,0,0,0,3.5,6.86c6.31,7.44,22.45,7.55,29.07.08C150.54,26.33,151.45,20.67,150.12,19.76Z"/><path class="cls-2" d="M201.75,19.58c-1.22-.83-3.66,2.8-7,2.14-2.7-.53-5.24-3.8-5.12-7.34A7.2,7.2,0,0,1,190,12.7a3,3,0,1,0,2.82-4,1.52,1.52,0,0,0-.21,0,5.67,5.67,0,0,1,2.16-1.12c1.79-.44,3.08.41,3.36-.08.48-.83-2.66-4.09-6.56-6A16.51,16.51,0,0,0,181.15.35,19,19,0,0,0,170.5,6.19,17.42,17.42,0,0,0,166,14.36a17.24,17.24,0,0,0,.29,8.61,18.63,18.63,0,0,0,3.5,6.86c6.31,7.44,22.46,7.55,29.08.08C202.17,26.15,203.08,20.49,201.75,19.58Z"/><path class="cls-3" d="M148.83,44.59A14.68,14.68,0,0,0,159,49.68a14.39,14.39,0,0,0,9-2.74"/></g></svg>